<svg width="147" height="126" xmlns="http://www.w3.org/2000/svg" xmlns:xlink="http://www.w3.org/1999/xlink" overflow="hidden"><defs><clipPath id="clip0"><rect x="905" y="297" width="147" height="126"/></clipPath></defs><g clip-path="url(#clip0)" transform="translate(-905 -297)"><path d="M1045.71 393.711C1037.9 397.781 997.418 414.431 988.708 419.001 979.998 423.571 975.318 423.441 968.498 420.191 961.678 416.941 918.698 399.461 910.928 395.751 907.048 393.901 905.008 392.341 905.008 390.861L905.008 376.051C905.008 376.051 961.088 363.881 970.138 360.611 979.188 357.341 982.318 357.241 990.028 360.061 997.738 362.881 1043.8 371.201 1051.41 373.981L1051.41 388.561C1051.41 390.081 1049.66 391.561 1045.67 393.691L1045.71 393.711Z" fill="#A32422"/><path d="M1045.71 378.911C1037.9 382.981 997.418 399.631 988.708 404.121 979.998 408.611 975.318 408.561 968.498 405.321 961.678 402.081 918.698 384.651 910.928 380.951 903.158 377.251 902.998 374.681 910.618 371.701 918.238 368.721 961.088 351.921 970.138 348.701 979.188 345.481 982.318 345.341 990.028 348.171 997.738 351.001 1037.97 367.011 1045.58 369.791 1053.19 372.571 1053.49 374.881 1045.67 378.921L1045.71 378.911Z" fill="#DC382C"/><path d="M1045.71 369.581C1037.9 373.651 997.418 390.301 988.708 394.791 979.998 399.281 975.318 399.231 968.498 395.991 961.678 392.751 918.698 375.341 910.928 371.621 907.048 369.771 905.008 368.201 905.008 366.721L905.008 351.931C905.008 351.931 961.088 339.761 970.138 336.471 979.188 333.181 982.318 333.111 990.028 335.941 997.738 338.771 1043.8 347.061 1051.41 349.851L1051.41 364.491C1051.49 365.961 1049.7 367.491 1045.71 369.581Z" fill="#A32422"/><path d="M1045.71 354.781C1037.9 358.861 997.418 375.491 988.708 379.981 979.998 384.471 975.318 384.441 968.498 381.181 961.678 377.921 918.698 360.531 910.928 356.821 903.158 353.111 902.998 350.561 910.618 347.581 918.238 344.601 961.088 327.801 970.138 324.581 979.188 321.361 982.318 321.221 990.028 324.031 997.738 326.841 1037.97 342.951 1045.58 345.661 1053.19 348.371 1053.49 350.741 1045.67 354.791L1045.71 354.781Z" fill="#DC382C"/><path d="M1045.71 344.551C1037.9 348.631 997.418 365.281 988.708 369.771 979.998 374.261 975.318 374.211 968.498 370.951 961.678 367.691 918.698 350.301 910.928 346.591 907.048 344.751 905.008 343.181 905.008 341.701L905.008 326.901C905.008 326.901 961.088 314.721 970.138 311.451 979.188 308.181 982.318 308.091 990.028 310.901 997.738 313.711 1043.8 322.041 1051.41 324.831L1051.41 339.421C1051.49 340.941 1049.7 342.491 1045.71 344.551Z" fill="#A32422"/><path d="M1045.71 329.761C1037.9 333.761 997.418 350.521 988.708 354.961 979.998 359.401 975.318 359.401 968.498 356.161 961.678 352.921 918.698 335.501 910.928 331.801 903.158 328.101 902.998 325.531 910.618 322.541 918.238 319.551 961.088 302.761 970.138 299.541 979.188 296.321 982.318 296.181 990.028 299.011 997.738 301.841 1037.97 317.851 1045.58 320.641 1053.19 323.431 1053.49 325.721 1045.67 329.771L1045.71 329.761Z" fill="#DC382C"/><path d="M1045.71 393.711C1037.9 397.781 997.418 414.431 988.708 419.001 979.998 423.571 975.318 423.441 968.498 420.191 961.678 416.941 918.698 399.461 910.928 395.751 907.048 393.901 905.008 392.341 905.008 390.861L905.008 376.051C905.008 376.051 961.088 363.881 970.138 360.611 979.188 357.341 982.318 357.241 990.028 360.061 997.738 362.881 1043.8 371.201 1051.41 373.981L1051.41 388.561C1051.41 390.081 1049.66 391.561 1045.67 393.691L1045.71 393.711Z" fill="#A32422"/><path d="M1045.71 378.911C1037.9 382.981 997.418 399.631 988.708 404.121 979.998 408.611 975.318 408.561 968.498 405.321 961.678 402.081 918.698 384.651 910.928 380.951 903.158 377.251 902.998 374.681 910.618 371.701 918.238 368.721 961.088 351.921 970.138 348.701 979.188 345.481 982.318 345.341 990.028 348.171 997.738 351.001 1037.97 367.011 1045.58 369.791 1053.19 372.571 1053.49 374.881 1045.67 378.921L1045.71 378.911Z" fill="#DC382C"/><path d="M1045.71 369.581C1037.9 373.651 997.418 390.301 988.708 394.791 979.998 399.281 975.318 399.231 968.498 395.991 961.678 392.751 918.698 375.341 910.928 371.621 907.048 369.771 905.008 368.201 905.008 366.721L905.008 351.931C905.008 351.931 961.088 339.761 970.138 336.471 979.188 333.181 982.318 333.111 990.028 335.941 997.738 338.771 1043.8 347.061 1051.41 349.851L1051.41 364.491C1051.49 365.961 1049.7 367.491 1045.71 369.581Z" fill="#A32422"/><path d="M1045.71 354.781C1037.9 358.861 997.418 375.491 988.708 379.981 979.998 384.471 975.318 384.441 968.498 381.181 961.678 377.921 918.698 360.531 910.928 356.821 903.158 353.111 902.998 350.561 910.618 347.581 918.238 344.601 961.088 327.801 970.138 324.581 979.188 321.361 982.318 321.221 990.028 324.031 997.738 326.841 1037.97 342.951 1045.58 345.661 1053.19 348.371 1053.49 350.741 1045.67 354.791L1045.71 354.781Z" fill="#DC382C"/><path d="M1045.71 344.551C1037.9 348.631 997.418 365.281 988.708 369.771 979.998 374.261 975.318 374.211 968.498 370.951 961.678 367.691 918.698 350.301 910.928 346.591 907.048 344.751 905.008 343.181 905.008 341.701L905.008 326.901C905.008 326.901 961.088 314.721 970.138 311.451 979.188 308.181 982.318 308.091 990.028 310.901 997.738 313.711 1043.8 322.041 1051.41 324.831L1051.41 339.421C1051.49 340.941 1049.7 342.491 1045.71 344.551Z" fill="#A32422"/><path d="M1045.71 329.761C1037.9 333.761 997.418 350.521 988.708 354.961 979.998 359.401 975.318 359.401 968.498 356.161 961.678 352.921 918.698 335.501 910.928 331.801 903.158 328.101 902.998 325.531 910.618 322.541 918.238 319.551 961.088 302.761 970.138 299.541 979.188 296.321 982.318 296.181 990.028 299.011 997.738 301.841 1037.97 317.851 1045.58 320.641 1053.19 323.431 1053.49 325.721 1045.67 329.771L1045.71 329.761Z" fill="#DC382C"/><path d="M980.548 308.731 990.208 305.561 987.588 311.821 997.418 315.501 984.748 316.821 981.898 323.661 977.318 316.031 962.668 314.711 973.608 310.771 970.318 304.711 980.548 308.731Z" fill="#FFFFFF"/><path d="M981.157 348.661 957.477 338.831 991.398 333.631 981.157 348.661Z" fill="#FFFFFF"/><path d="M948.328 319.301C958.328 319.301 966.448 322.451 966.448 326.301 966.448 330.151 958.308 333.301 948.328 333.301 938.348 333.301 930.188 330.151 930.188 326.301 930.188 322.451 938.318 319.301 948.328 319.301Z" fill="#FFFFFF"/><path d="M1012.43 317.371 1032.5 325.301 1012.45 333.231 1012.43 317.371Z" fill="#741113"/><path d="M1012.43 317.371 1012.45 333.231 1010.27 334.081 990.208 326.151 1012.43 317.371Z" fill="#AC2724"/></g></svg>